<?xml version="1.0" encoding="UTF-8"?><svg id="Layer_1" xmlns="http://www.w3.org/2000/svg" viewBox="0 0 910.73 209.21"><path d="M350.02,125.86c-7.96,0-14.72-2.56-20.3-7.68l3.84-7.48c5.62,4.57,11.16,6.86,16.6,6.86,5.12,0,7.86-1.75,8.23-5.23,0-1.56-.64-2.83-1.92-3.8-1.83-1.29-5.56-2.67-11.18-4.13-.78-.23-1.83-.6-3.15-1.13-3.23-1.23-5.62-2.8-7.19-4.74-1.56-1.93-2.35-4.35-2.35-7.27s.79-5.47,2.39-7.47c1.59-1.99,3.73-3.5,6.44-4.5,2.71-.99,5.76-1.49,9.14-1.49,6.4,0,12.18,1.69,17.35,5.07l-3.7,8.1c-5.35-3.2-10.15-4.81-14.4-4.81-2.01,0-3.7.35-5.07,1.03-1.38.69-2.06,1.85-2.06,3.5s.86,3.03,2.58,4.17c1.71,1.14,4.6,2.23,8.67,3.28,5.21,1.55,8.69,3.13,10.43,4.72.46.44.98,1,1.58,1.66,1.64,1.86,2.47,4.37,2.47,7.52,0,4.43-1.74,7.85-5.22,10.24-3.47,2.39-7.86,3.59-13.16,3.59" fill="#d7be6a"/><path d="M374.64,125.86c-1.39,0-2.52-.49-3.38-1.46-.86-.97-1.29-2.16-1.29-3.55,0-1.14.22-2.07.66-2.79.43-.72,1-1.25,1.71-1.58.71-.33,1.47-.49,2.29-.49s1.56.16,2.28.48c.72.32,1.31.83,1.76,1.54.46.71.69,1.66.69,2.85,0,1.28-.41,2.44-1.22,3.46-.81,1.03-1.98,1.54-3.51,1.54" fill="#d7be6a"/><path d="M411.68,77.82h-9.53l-21.06,48.01h9.54l4.25-10.15h23.45l4.25,10.15h9.88l-20.78-48.01ZM398.17,107.79l8.51-20.16,8.37,20.16h-16.87Z" fill="#d7be6a"/><path d="M437.76,125.86c-1.39,0-2.52-.49-3.38-1.46-.86-.97-1.29-2.16-1.29-3.55,0-1.14.22-2.07.66-2.79.43-.72,1-1.25,1.71-1.58.71-.33,1.47-.49,2.3-.49s1.56.16,2.28.48c.72.32,1.31.83,1.76,1.54.46.71.69,1.66.69,2.85,0,1.28-.41,2.44-1.22,3.46-.81,1.03-1.98,1.54-3.51,1.54" fill="#d7be6a"/><path d="M464.84,125.86c-7.95,0-14.72-2.56-20.3-7.68l3.84-7.48c5.62,4.57,11.16,6.86,16.6,6.86,5.12,0,7.86-1.75,8.23-5.23,0-1.56-.64-2.83-1.92-3.8-1.83-1.29-5.55-2.67-11.18-4.13-.78-.23-1.83-.6-3.15-1.13-3.23-1.23-5.62-2.8-7.19-4.74-1.56-1.93-2.35-4.35-2.35-7.27s.79-5.47,2.38-7.47c1.59-1.99,3.74-3.5,6.45-4.5,2.71-.99,5.75-1.49,9.14-1.49,6.4,0,12.18,1.69,17.35,5.07l-3.7,8.1c-5.35-3.2-10.15-4.81-14.4-4.81-2.01,0-3.7.35-5.07,1.03-1.38.69-2.06,1.85-2.06,3.5s.86,3.03,2.57,4.17c1.71,1.14,4.61,2.23,8.67,3.28,5.22,1.55,8.69,3.13,10.43,4.72.46.44.98,1,1.58,1.66,1.65,1.86,2.47,4.37,2.47,7.52,0,4.43-1.74,7.85-5.21,10.24-3.48,2.39-7.87,3.59-13.17,3.59" fill="#d7be6a"/><polygon points="527.84 125.83 518.58 125.83 518.58 85.99 503.63 85.99 503.63 77.83 542.79 77.83 542.79 85.99 527.84 85.99 527.84 125.83" fill="#d7be6a"/><path d="M578.69,109.92c6.35-2.79,9.53-7.98,9.53-15.57s-3.2-12.61-9.6-14.92c-2.95-1.08-6.24-1.61-9.87-1.61h-20.03v48.01h9.19v-14.17h12.55l8.3,14.17h10.49l-10.56-15.91ZM576.49,101.52c-1.96,1.39-4.55,2.1-7.75,2.1h-10.84v-17.77h10.84c7.14,0,10.7,2.93,10.7,8.78,0,3.2-.99,5.5-2.95,6.89" fill="#d7be6a"/><path d="M624.19,77.82h-9.53l-21.06,48.01h9.54l4.25-10.15h23.45l4.25,10.15h9.87l-20.78-48.01ZM610.68,107.79l8.51-20.16,8.37,20.16h-16.87Z" fill="#d7be6a"/><polygon points="691.48 125.83 682.76 125.83 658.08 92.77 658.08 125.83 649.09 125.83 649.09 77.83 657.8 77.83 682.56 110.95 682.56 77.83 691.48 77.83 691.48 125.83" fill="#d7be6a"/><path d="M717.54,125.86c-7.96,0-14.72-2.56-20.3-7.68l3.84-7.48c5.62,4.57,11.16,6.86,16.6,6.86,5.12,0,7.86-1.75,8.23-5.23,0-1.56-.64-2.83-1.92-3.8-1.83-1.29-5.55-2.67-11.18-4.13-.78-.23-1.83-.6-3.15-1.13-3.23-1.23-5.62-2.8-7.19-4.74-1.56-1.93-2.35-4.35-2.35-7.27s.79-5.47,2.38-7.47c1.59-1.99,3.74-3.5,6.45-4.5,2.71-.99,5.75-1.49,9.14-1.49,6.4,0,12.18,1.69,17.35,5.07l-3.7,8.1c-5.35-3.2-10.15-4.81-14.4-4.81-2.01,0-3.7.35-5.07,1.03-1.38.69-2.06,1.85-2.06,3.5s.86,3.03,2.57,4.17c1.71,1.14,4.61,2.23,8.67,3.28,5.22,1.55,8.69,3.13,10.43,4.72.46.44.98,1,1.58,1.66,1.65,1.86,2.47,4.37,2.47,7.52,0,4.43-1.74,7.85-5.21,10.24-3.48,2.39-7.87,3.59-13.17,3.59" fill="#d7be6a"/><rect x="742.09" y="77.83" width="9.19" height="48" fill="#d7be6a"/><polygon points="779.67 125.83 770.41 125.83 770.41 85.99 755.46 85.99 755.46 77.83 794.62 77.83 794.62 85.99 779.67 85.99 779.67 125.83" fill="#d7be6a"/><rect x="799" y="77.83" width="9.19" height="48" fill="#d7be6a"/><path d="M856,84.71c-4.89-4.62-10.97-6.92-18.24-6.92s-13.35,2.29-18.25,6.85c-4.89,4.57-7.33,10.26-7.33,17.09,0,4.52,1.1,8.6,3.29,12.23,1.39,2.35,3.18,4.4,5.33,6.19,2.16,1.79,4.66,3.18,7.49,4.2,2.83,1.02,5.99,1.53,9.47,1.53,7.22,0,13.29-2.33,18.21-6.99,4.92-4.66,7.37-10.37,7.37-17.15s-2.45-12.41-7.34-17.02M849.14,113.08c-3.2,3-6.95,4.49-11.24,4.49s-8.21-1.49-11.46-4.46c-3.25-2.97-4.87-6.76-4.87-11.38,0-3.13.78-5.87,2.33-8.22,1.49-2.26,3.43-4.08,5.83-5.45,2.4-1.36,5.12-2.04,8.17-2.04,4.34,0,8.1,1.46,11.28,4.39,3.17,2.93,4.77,6.7,4.77,11.32s-1.6,8.36-4.8,11.35" fill="#d7be6a"/><polygon points="910.73 125.83 902.02 125.83 877.33 92.77 877.33 125.83 868.35 125.83 868.35 77.83 877.06 77.83 901.81 110.95 901.81 77.83 910.73 77.83 910.73 125.83" fill="#d7be6a"/><rect x="266.37" y="0" width="11.01" height="209.23" fill="#d7be6a"/><path d="M209.6,92.91h-35.87v-18.89h-33.69l-8.89-8.9,19.12-19.12v-3.75s-.01-22.31-.01-22.31c19.5,10.32,35.03,27.15,43.65,47.61-1.49,1.75-2.39,4.01-2.39,6.49,0,4.68,3.21,8.59,7.54,9.7.8.21,1.63.33,2.49.33,2.35,0,4.51-.82,6.22-2.18,2.31-1.83,3.8-4.67,3.8-7.85,0-5.35-4.2-9.72-9.49-9.99C186.2,26.45,148.96,0,105.65,0,47.97,0,1.04,46.92,1.04,104.61c0,1.31.04,2.61.08,3.91h8.9c-.05-1.3-.09-2.6-.09-3.91,0-12.36,2.38-24.17,6.66-35.03h40.59v14.82h15.85v15.75h-25.1v30.44l-23.93,23.92c-3.56-5.81-6.5-12.03-8.78-18.57,2.89-1.76,4.83-4.93,4.83-8.56,0-5.27-4.07-9.58-9.24-9.98-.26-.02-.51-.04-.78-.04-3.09,0-5.85,1.41-7.69,3.61-1.45,1.74-2.33,3.97-2.33,6.42,0,4.12,2.49,7.66,6.05,9.2,13.55,42.08,53.07,72.62,99.6,72.62,57.69,0,104.61-46.92,104.61-104.6,0-.93-.01-1.86-.04-2.78-.08-3-.29-5.97-.62-8.91M167.04,108.01h-27.25v-27.3h27.25v27.3ZM141.34,15.82v26.44l-18.36,18.42h-25.2v-16.94h-15.85V11.86c7.59-1.94,15.53-2.98,23.71-2.98,12.62,0,24.66,2.48,35.7,6.94M20.64,60.68c11.01-21.21,29.7-37.82,52.38-46.07v29.13h-15.85v16.94H20.64ZM63.85,50.42h27.25v27.3h-27.25v-27.3ZM73.03,109.06h8.91v-24.66h15.85v-14.82h25.2l10.11,10.11v35h15.85v24.68l-13.73,13.73h-19.69v-25.63h-40.62v26.24l-18.09-23.05v-21.6h16.19ZM81.6,134.15h27.25v27.3h-27.25v-27.3ZM105.65,200.33c-31.26,0-59.07-15.07-76.55-38.31l22.98-22.98,22.83,29.1h.01s0,0,0,0h40.62v-6.13h23.1s.28,0,.28,0l.56-.56,5.82-5.81,22.06,22.06c-16.67,14.1-38.21,22.63-61.71,22.63M173.9,171.65l-22.31-22.31,6.28-6.29v-28.36h15.86v-12.86h27.58c.03.93.07,1.85.07,2.78,0,26.09-10.5,49.75-27.48,67.04" fill="#d7be6a"/></svg>