<?xml version="1.0" encoding="UTF-8"?><svg id="Layer_1" xmlns="http://www.w3.org/2000/svg" viewBox="0 0 1250.66 293.5"><path d="M481.9,149.66c-10.79,0-19.97-3.47-27.54-10.42l5.21-10.15c7.63,6.2,15.13,9.31,22.51,9.31,6.95,0,10.66-2.37,11.16-7.09,0-2.11-.87-3.83-2.6-5.16-2.49-1.75-7.54-3.62-15.17-5.61-1.05-.31-2.48-.81-4.28-1.53-4.38-1.66-7.63-3.8-9.75-6.43-2.12-2.62-3.19-5.91-3.19-9.86s1.08-7.42,3.24-10.14c2.16-2.71,5.06-4.74,8.74-6.11,3.68-1.35,7.81-2.03,12.4-2.03,8.68,0,16.53,2.29,23.53,6.88l-5.02,10.98c-7.25-4.34-13.77-6.52-19.54-6.52-2.73,0-5.02.47-6.88,1.4-1.87.93-2.8,2.51-2.8,4.74s1.17,4.11,3.49,5.66c2.32,1.55,6.24,3.03,11.77,4.44,7.07,2.1,11.78,4.24,14.14,6.41.62.6,1.33,1.36,2.14,2.26,2.23,2.53,3.35,5.92,3.35,10.2,0,6.01-2.36,10.65-7.08,13.9-4.71,3.24-10.66,4.87-17.86,4.87" fill="#fff"/><path d="M515.29,149.66c-1.89,0-3.42-.66-4.58-1.98-1.16-1.32-1.75-2.93-1.75-4.82,0-1.54.3-2.81.89-3.78.59-.98,1.36-1.7,2.32-2.15.96-.45,1.99-.67,3.11-.67s2.12.21,3.1.65c.98.43,1.77,1.13,2.39,2.09.62.97.93,2.25.93,3.86,0,1.74-.55,3.31-1.65,4.7-1.1,1.4-2.69,2.1-4.77,2.1" fill="#fff"/><path d="M565.52,84.5h-12.93l-28.56,65.12h12.94l5.77-13.77h31.81l5.77,13.77h13.39l-28.19-65.12ZM547.2,125.15l11.54-27.35,11.35,27.35h-22.89Z" fill="#fff"/><path d="M600.91,149.66c-1.89,0-3.42-.66-4.58-1.98-1.16-1.32-1.75-2.93-1.75-4.82,0-1.54.3-2.81.89-3.78.59-.98,1.36-1.7,2.32-2.15.96-.45,1.99-.67,3.11-.67s2.11.21,3.1.65c.98.43,1.77,1.13,2.39,2.09.62.97.93,2.25.93,3.86,0,1.74-.55,3.31-1.65,4.7-1.1,1.4-2.69,2.1-4.77,2.1" fill="#fff"/><path d="M637.63,149.66c-10.79,0-19.97-3.47-27.54-10.42l5.21-10.15c7.63,6.2,15.13,9.31,22.51,9.31,6.95,0,10.66-2.37,11.16-7.09,0-2.11-.87-3.83-2.6-5.16-2.48-1.75-7.53-3.62-15.17-5.61-1.05-.31-2.48-.81-4.28-1.53-4.38-1.66-7.63-3.8-9.75-6.43-2.12-2.62-3.18-5.91-3.18-9.86s1.08-7.42,3.23-10.14c2.15-2.71,5.07-4.74,8.75-6.11,3.67-1.35,7.8-2.03,12.39-2.03,8.68,0,16.53,2.29,23.53,6.88l-5.02,10.98c-7.25-4.34-13.77-6.52-19.54-6.52-2.72,0-5.02.47-6.88,1.4-1.87.93-2.79,2.51-2.79,4.74s1.16,4.11,3.49,5.66c2.32,1.55,6.25,3.03,11.77,4.44,7.08,2.1,11.78,4.24,14.14,6.41.62.6,1.33,1.36,2.14,2.26,2.24,2.53,3.35,5.92,3.35,10.2,0,6.01-2.36,10.65-7.07,13.9-4.72,3.24-10.67,4.87-17.87,4.87" fill="#fff"/><polygon points="723.09 149.61 710.53 149.61 710.53 95.57 690.25 95.57 690.25 84.5 743.37 84.5 743.37 95.57 723.09 95.57 723.09 149.61" fill="#fff"/><path d="M792.06,128.04c8.62-3.78,12.93-10.82,12.93-21.12s-4.33-17.1-13.02-20.23c-4-1.46-8.47-2.19-13.39-2.19h-27.16v65.12h12.46v-19.21h17.03l11.26,19.21h14.23l-14.33-21.58ZM789.08,116.63c-2.66,1.89-6.17,2.84-10.51,2.84h-14.7v-24.1h14.7c9.68,0,14.51,3.97,14.51,11.91,0,4.34-1.34,7.46-4,9.35" fill="#fff"/><path d="M853.79,84.5h-12.93l-28.56,65.12h12.94l5.77-13.77h31.81l5.77,13.77h13.39l-28.19-65.12ZM835.46,125.15l11.54-27.35,11.35,27.35h-22.89Z" fill="#fff"/><polygon points="945.05 149.61 933.23 149.61 899.75 104.77 899.75 149.61 887.56 149.61 887.56 84.5 899.38 84.5 932.95 129.43 932.95 84.5 945.05 84.5 945.05 149.61" fill="#fff"/><path d="M980.4,149.66c-10.79,0-19.97-3.47-27.54-10.42l5.21-10.15c7.63,6.2,15.13,9.31,22.51,9.31,6.95,0,10.66-2.37,11.16-7.09,0-2.11-.87-3.83-2.6-5.16-2.48-1.75-7.53-3.62-15.17-5.61-1.05-.31-2.48-.81-4.28-1.53-4.38-1.66-7.63-3.8-9.75-6.43-2.12-2.62-3.18-5.91-3.18-9.86s1.08-7.42,3.23-10.14c2.16-2.71,5.07-4.74,8.75-6.11,3.67-1.35,7.8-2.03,12.39-2.03,8.68,0,16.53,2.29,23.53,6.88l-5.02,10.98c-7.25-4.34-13.77-6.52-19.54-6.52-2.72,0-5.02.47-6.88,1.4-1.87.93-2.79,2.51-2.79,4.74s1.16,4.11,3.49,5.66c2.32,1.55,6.25,3.03,11.77,4.44,7.08,2.1,11.78,4.24,14.14,6.41.62.6,1.33,1.36,2.14,2.26,2.24,2.53,3.35,5.92,3.35,10.2,0,6.01-2.36,10.65-7.07,13.9-4.72,3.24-10.67,4.87-17.87,4.87" fill="#fff"/><rect x="1013.7" y="84.5" width="12.46" height="65.12" fill="#fff"/><polygon points="1064.68 149.61 1052.12 149.61 1052.12 95.57 1031.84 95.57 1031.84 84.5 1084.96 84.5 1084.96 95.57 1064.68 95.57 1064.68 149.61" fill="#fff"/><rect x="1090.9" y="84.5" width="12.46" height="65.12" fill="#fff"/><path d="M1168.21,93.84c-6.63-6.26-14.88-9.39-24.74-9.39s-18.11,3.1-24.75,9.3c-6.63,6.2-9.95,13.92-9.95,23.18,0,6.13,1.49,11.66,4.46,16.59,1.89,3.18,4.31,5.97,7.24,8.39,2.93,2.43,6.32,4.32,10.16,5.69,3.84,1.38,8.13,2.07,12.84,2.07,9.8,0,18.03-3.16,24.7-9.48,6.67-6.32,10-14.07,10-23.26s-3.32-16.83-9.96-23.08M1158.92,132.32c-4.34,4.06-9.42,6.09-15.25,6.09s-11.14-2.02-15.54-6.05c-4.4-4.03-6.61-9.17-6.61-15.44,0-4.24,1.06-7.96,3.16-11.15,2.02-3.07,4.66-5.54,7.91-7.39,3.26-1.85,6.95-2.77,11.08-2.77,5.89,0,10.98,1.99,15.3,5.96,4.3,3.97,6.46,9.08,6.46,15.35s-2.17,11.34-6.52,15.4" fill="#fff"/><polygon points="1242.45 149.61 1230.64 149.61 1197.15 104.77 1197.15 149.61 1184.96 149.61 1184.96 84.5 1196.78 84.5 1230.36 129.43 1230.36 84.5 1242.45 84.5 1242.45 149.61" fill="#fff"/><polygon points="474.67 182.91 467.05 195.45 459.5 182.91 454.38 182.91 464.5 199.67 464.5 208.68 469.29 208.68 469.29 199.61 479.38 182.91 474.67 182.91" fill="#fff"/><path d="M503.31,186.32c-1.25-1.2-2.71-2.12-4.39-2.78-1.69-.66-3.53-.99-5.55-.99s-3.83.33-5.52.99c-1.69.66-3.16,1.59-4.42,2.78-1.25,1.19-2.21,2.59-2.9,4.2-.7,1.6-1.03,3.37-1.03,5.28s.34,3.67,1.03,5.28c.69,1.61,1.65,3.01,2.9,4.2,1.26,1.2,2.73,2.12,4.42,2.78,1.7.66,3.55.99,5.56.99s3.82-.33,5.51-.99c1.68-.66,3.15-1.59,4.39-2.76,1.26-1.18,2.22-2.57,2.91-4.19.69-1.62,1.04-3.39,1.04-5.3s-.35-3.68-1.04-5.28c-.69-1.61-1.65-3.01-2.91-4.2M501.75,199.43c-.46,1.09-1.09,2.05-1.9,2.88-.81.82-1.76,1.45-2.87,1.89-1.1.44-2.31.66-3.61.66s-2.5-.22-3.61-.66c-1.1-.44-2.06-1.07-2.88-1.89-.81-.82-1.44-1.79-1.89-2.89-.46-1.1-.68-2.31-.68-3.61s.22-2.54.68-3.63c.45-1.09,1.09-2.05,1.92-2.88.82-.82,1.77-1.45,2.87-1.89,1.09-.44,2.29-.66,3.59-.66s2.51.22,3.61.66c1.1.44,2.06,1.07,2.87,1.89.81.82,1.44,1.78,1.9,2.88.45,1.09.68,2.3.68,3.63s-.23,2.53-.68,3.62" fill="#fff"/><path d="M529.9,197.27c0,2.65-.57,4.58-1.7,5.78-1.13,1.2-2.73,1.81-4.82,1.81s-3.71-.6-4.84-1.81c-1.15-1.2-1.71-3.12-1.71-5.78v-14.36h-4.78v14.55c0,3.75,1,6.63,3,8.62,1.99,1.98,4.77,2.98,8.3,2.98s6.27-.99,8.27-2.98c2-1.99,3-4.87,3-8.62v-14.55h-4.72v14.36Z" fill="#fff"/><path d="M557.72,200.09c1.64-.72,2.89-1.76,3.77-3.13.88-1.36,1.32-2.99,1.32-4.88,0-2.87-.98-5.12-2.93-6.74-1.95-1.62-4.64-2.43-8.08-2.43h-10.56v25.78h4.78v-7.52h5.82c.34,0,.66-.03.99-.04l5.27,7.56h5.15l-5.92-8.46c.13-.05.26-.08.38-.14M556.39,188.29c1.07.88,1.6,2.15,1.6,3.79s-.53,2.88-1.6,3.79c-1.07.91-2.65,1.37-4.77,1.37h-5.6v-10.27h5.6c2.11,0,3.7.44,4.77,1.32" fill="#fff"/><polygon points="574.86 186.96 583.4 186.96 583.4 208.69 588.19 208.69 588.19 186.96 596.73 186.96 596.73 182.91 574.86 182.91 574.86 186.96" fill="#fff"/><path d="M617.43,197.27c0,2.65-.57,4.58-1.7,5.78-1.13,1.2-2.73,1.81-4.82,1.81s-3.71-.6-4.84-1.81c-1.15-1.2-1.71-3.12-1.71-5.78v-14.36h-4.78v14.55c0,3.75,1,6.63,3,8.62,1.99,1.98,4.77,2.98,8.3,2.98s6.27-.99,8.27-2.98c2-1.99,3-4.87,3-8.62v-14.55h-4.72v14.36Z" fill="#fff"/><path d="M645.24,200.09c1.64-.72,2.89-1.76,3.77-3.13.88-1.36,1.32-2.99,1.32-4.88,0-2.87-.98-5.12-2.93-6.74-1.95-1.62-4.64-2.43-8.08-2.43h-10.56v25.78h4.78v-7.52h5.82c.34,0,.66-.03.99-.04l5.27,7.56h5.15l-5.92-8.46c.13-.05.26-.08.38-.14M643.92,188.29c1.07.88,1.6,2.15,1.6,3.79s-.53,2.88-1.6,3.79c-1.07.91-2.65,1.37-4.77,1.37h-5.6v-10.27h5.6c2.11,0,3.7.44,4.77,1.32" fill="#fff"/><polygon points="673.76 200.36 659.55 182.91 655.61 182.91 655.61 208.68 660.36 208.68 660.36 191.23 674.58 208.68 678.51 208.68 678.51 182.91 673.76 182.91 673.76 200.36" fill="#fff"/><polygon points="708.27 182.91 702.89 182.91 690.15 196.14 690.15 182.91 685.36 182.91 685.36 208.68 690.15 208.68 690.15 202.08 694.25 197.88 703.33 208.68 708.93 208.68 697.42 194.43 708.27 182.91" fill="#fff"/><polygon points="716.92 197.56 729.36 197.56 729.36 193.63 716.92 193.63 716.92 186.93 730.95 186.93 730.95 182.91 712.14 182.91 712.14 208.69 731.47 208.69 731.47 204.67 716.92 204.67 716.92 197.56" fill="#fff"/><polygon points="752.93 182.91 745.31 195.45 737.76 182.91 732.64 182.91 742.77 199.67 742.77 208.68 747.55 208.68 747.55 199.61 757.65 182.91 752.93 182.91" fill="#fff"/><polygon points="775.58 197.56 788.02 197.56 788.02 193.63 775.58 193.63 775.58 186.93 789.61 186.93 789.61 182.91 770.79 182.91 770.79 208.69 790.12 208.69 790.12 204.67 775.58 204.67 775.58 197.56" fill="#fff"/><polygon points="813.54 200.36 799.32 182.91 795.39 182.91 795.39 208.68 800.14 208.68 800.14 191.23 814.35 208.68 818.29 208.68 818.29 182.91 813.54 182.91 813.54 200.36" fill="#fff"/><path d="M830.74,189.28c.83-.81,1.83-1.43,2.99-1.88,1.15-.44,2.4-.66,3.75-.66s2.68.24,3.85.71c1.16.48,2.25,1.22,3.26,2.23l3.02-2.94c-1.2-1.37-2.68-2.42-4.44-3.13-1.76-.71-3.72-1.07-5.91-1.07-2.01,0-3.87.32-5.56.98-1.7.64-3.17,1.57-4.44,2.76-1.26,1.2-2.24,2.6-2.93,4.22-.69,1.62-1.04,3.39-1.04,5.3s.35,3.69,1.04,5.3c.69,1.62,1.65,3.03,2.9,4.22,1.26,1.19,2.72,2.1,4.4,2.76,1.68.65,3.53.98,5.55.98,1.82,0,3.61-.27,5.4-.83,1.77-.55,3.34-1.37,4.69-2.44v-10.27h-4.53v8c-.53.31-1.06.56-1.6.75-1.19.4-2.43.6-3.7.6-1.37,0-2.63-.22-3.76-.66-1.13-.44-2.11-1.08-2.94-1.89-.84-.82-1.48-1.79-1.93-2.89-.46-1.1-.68-2.31-.68-3.61s.22-2.54.68-3.64c.46-1.11,1.09-2.06,1.93-2.88" fill="#fff"/><rect x="853.49" y="182.92" width="4.78" height="25.77" fill="#fff"/><polygon points="883.32 200.36 869.1 182.91 865.16 182.91 865.16 208.68 869.91 208.68 869.91 191.23 884.13 208.68 888.07 208.68 888.07 182.91 883.32 182.91 883.32 200.36" fill="#fff"/><polygon points="899.7 197.56 912.15 197.56 912.15 193.63 899.7 193.63 899.7 186.93 913.74 186.93 913.74 182.91 894.92 182.91 894.92 208.69 914.25 208.69 914.25 204.67 899.7 204.67 899.7 197.56" fill="#fff"/><polygon points="924.3 197.56 936.75 197.56 936.75 193.63 924.3 193.63 924.3 186.93 938.33 186.93 938.33 182.91 919.52 182.91 919.52 208.69 938.84 208.69 938.84 204.67 924.3 204.67 924.3 197.56" fill="#fff"/><path d="M960.59,200.09c1.64-.72,2.89-1.76,3.77-3.13.88-1.36,1.32-2.99,1.32-4.88,0-2.87-.98-5.12-2.93-6.74-1.95-1.62-4.64-2.43-8.08-2.43h-10.56v25.78h4.78v-7.52h5.82c.34,0,.66-.03.99-.04l5.27,7.56h5.15l-5.92-8.46c.13-.05.26-.08.38-.14M959.26,188.29c1.07.88,1.6,2.15,1.6,3.79s-.53,2.88-1.6,3.79c-1.07.91-2.65,1.37-4.77,1.37h-5.6v-10.27h5.6c2.11,0,3.7.44,4.77,1.32" fill="#fff"/><rect x="970.95" y="182.92" width="4.78" height="25.77" fill="#fff"/><polygon points="1000.78 200.36 986.56 182.91 982.63 182.91 982.63 208.68 987.38 208.68 987.38 191.23 1001.59 208.68 1005.53 208.68 1005.53 182.91 1000.78 182.91 1000.78 200.36" fill="#fff"/><path d="M1017.98,189.28c.83-.81,1.83-1.43,2.99-1.88,1.15-.44,2.4-.66,3.75-.66s2.68.24,3.85.71c1.16.48,2.25,1.22,3.26,2.23l3.02-2.94c-1.2-1.37-2.68-2.42-4.44-3.13-1.76-.71-3.72-1.07-5.91-1.07-2.01,0-3.87.32-5.56.98-1.7.64-3.17,1.57-4.44,2.76-1.26,1.2-2.24,2.6-2.93,4.22-.69,1.62-1.04,3.39-1.04,5.3s.35,3.69,1.04,5.3c.69,1.62,1.65,3.03,2.9,4.22,1.26,1.19,2.72,2.1,4.4,2.76,1.68.65,3.53.98,5.55.98,1.82,0,3.61-.27,5.4-.83,1.77-.55,3.34-1.37,4.69-2.44v-10.27h-4.53v8c-.53.31-1.06.56-1.6.75-1.19.4-2.43.6-3.7.6-1.37,0-2.63-.22-3.76-.66-1.13-.44-2.11-1.08-2.94-1.89-.84-.82-1.48-1.79-1.93-2.89-.45-1.1-.68-2.31-.68-3.61s.23-2.54.68-3.64c.46-1.11,1.09-2.06,1.93-2.88" fill="#fff"/><path d="M1066.23,195.94c-.9-.52-1.89-.93-2.99-1.25-1.09-.32-2.19-.61-3.29-.87-1.1-.26-2.1-.53-3-.8-.89-.27-1.62-.64-2.17-1.12-.55-.48-.83-1.11-.83-1.9,0-.66.2-1.25.58-1.76.37-.52.98-.93,1.8-1.26.82-.31,1.9-.47,3.22-.47,1.13,0,2.31.17,3.54.5,1.22.32,2.42.84,3.57,1.53l1.51-3.72c-1.13-.74-2.45-1.3-3.98-1.69-1.52-.4-3.05-.59-4.61-.59-2.35,0-4.3.35-5.84,1.05-1.53.7-2.67,1.63-3.42,2.8-.76,1.16-1.13,2.44-1.13,3.84s.29,2.5.85,3.39c.57.88,1.3,1.59,2.2,2.11.89.53,1.88.96,2.98,1.29,1.09.33,2.19.62,3.27.87,1.09.25,2.09.51,2.99.79.9.29,1.63.67,2.19,1.15.57.48.85,1.11.85,1.9,0,.64-.2,1.2-.59,1.71-.4.5-1.01.9-1.84,1.19-.84.3-1.93.45-3.28.45-1.59,0-3.16-.27-4.67-.81-1.52-.54-2.8-1.21-3.83-2.03l-1.66,3.72c1.09.91,2.54,1.65,4.39,2.22,1.84.58,3.77.87,5.78.87,2.36,0,4.31-.35,5.85-1.04,1.55-.7,2.7-1.64,3.44-2.8.76-1.17,1.13-2.44,1.13-3.81s-.28-2.47-.83-3.35c-.55-.89-1.27-1.59-2.17-2.1" fill="#fff"/><path d="M1095.89,186.32c-1.25-1.2-2.71-2.12-4.39-2.78-1.69-.66-3.53-.99-5.55-.99s-3.83.33-5.52.99c-1.69.66-3.16,1.59-4.42,2.78-1.25,1.19-2.21,2.59-2.9,4.2-.7,1.6-1.03,3.37-1.03,5.28s.34,3.67,1.03,5.28c.69,1.61,1.65,3.01,2.9,4.2,1.26,1.2,2.73,2.12,4.42,2.78,1.7.66,3.55.99,5.56.99s3.82-.33,5.51-.99c1.68-.66,3.15-1.59,4.39-2.76,1.26-1.18,2.22-2.57,2.91-4.19.69-1.62,1.04-3.39,1.04-5.3s-.35-3.68-1.04-5.28c-.69-1.61-1.65-3.01-2.91-4.2M1094.33,199.43c-.46,1.09-1.09,2.05-1.9,2.88-.81.82-1.76,1.45-2.87,1.89-1.1.44-2.31.66-3.61.66s-2.5-.22-3.61-.66c-1.1-.44-2.06-1.07-2.88-1.89-.81-.82-1.44-1.79-1.89-2.89-.46-1.1-.68-2.31-.68-3.61s.22-2.54.68-3.63c.45-1.09,1.09-2.05,1.92-2.88.82-.82,1.77-1.45,2.87-1.89,1.09-.44,2.29-.66,3.59-.66s2.51.22,3.61.66c1.1.44,2.06,1.07,2.87,1.89.81.82,1.44,1.78,1.9,2.88.45,1.09.68,2.3.68,3.63s-.23,2.53-.68,3.62" fill="#fff"/><polygon points="1109.63 182.91 1104.84 182.91 1104.84 208.68 1123.11 208.68 1123.11 204.64 1109.63 204.64 1109.63 182.91" fill="#fff"/><path d="M1144.09,197.27c0,2.65-.57,4.58-1.7,5.78-1.13,1.2-2.73,1.81-4.82,1.81s-3.71-.6-4.84-1.81c-1.15-1.2-1.71-3.12-1.71-5.78v-14.36h-4.78v14.55c0,3.75,1,6.63,3,8.62,1.99,1.98,4.77,2.98,8.3,2.98s6.27-.99,8.27-2.98c2-1.99,3-4.87,3-8.62v-14.55h-4.72v14.36Z" fill="#fff"/><polygon points="1151.64 186.96 1160.18 186.96 1160.18 208.69 1164.97 208.69 1164.97 186.96 1173.51 186.96 1173.51 182.91 1151.64 182.91 1151.64 186.96" fill="#fff"/><rect x="1177.05" y="182.92" width="4.78" height="25.77" fill="#fff"/><path d="M1210.7,186.32c-1.25-1.2-2.71-2.12-4.39-2.78-1.69-.66-3.53-.99-5.55-.99s-3.83.33-5.52.99c-1.69.66-3.16,1.59-4.42,2.78-1.25,1.19-2.21,2.59-2.9,4.2-.7,1.6-1.04,3.37-1.04,5.28s.34,3.67,1.04,5.28c.69,1.61,1.65,3.01,2.9,4.2,1.26,1.2,2.73,2.12,4.42,2.78,1.7.66,3.55.99,5.57.99s3.82-.33,5.51-.99c1.68-.66,3.15-1.59,4.39-2.76,1.26-1.18,2.22-2.57,2.91-4.19.69-1.62,1.04-3.39,1.04-5.3s-.35-3.68-1.04-5.28c-.69-1.61-1.65-3.01-2.91-4.2M1209.14,199.43c-.46,1.09-1.09,2.05-1.9,2.88-.81.82-1.76,1.45-2.87,1.89-1.1.44-2.31.66-3.61.66s-2.5-.22-3.61-.66c-1.1-.44-2.06-1.07-2.88-1.89-.81-.82-1.44-1.79-1.89-2.89-.46-1.1-.68-2.31-.68-3.61s.22-2.54.68-3.63c.45-1.09,1.09-2.05,1.92-2.88.82-.82,1.77-1.45,2.87-1.89,1.09-.44,2.29-.66,3.59-.66s2.51.22,3.61.66c1.1.44,2.06,1.07,2.87,1.89.81.82,1.44,1.78,1.9,2.88.45,1.09.68,2.3.68,3.63s-.23,2.53-.68,3.62" fill="#fff"/><polygon points="1237.8 182.91 1237.8 200.36 1223.59 182.91 1219.65 182.91 1219.65 208.68 1224.4 208.68 1224.4 191.23 1238.62 208.68 1242.55 208.68 1242.55 182.91 1237.8 182.91" fill="#fff"/><rect x="368.43" y="4.85" width="14.93" height="283.8" fill="#fff"/><path d="M291.42,130.9h-48.66v-25.62h-45.7l-12.06-12.07,25.94-25.94-.02-5.08v-30.27c26.45,14,47.52,36.83,59.21,64.58-2.02,2.38-3.24,5.44-3.24,8.8,0,6.35,4.35,11.66,10.22,13.16,1.09.28,2.21.44,3.38.44,3.19,0,6.12-1.11,8.44-2.95,3.13-2.49,5.15-6.33,5.15-10.65,0-7.26-5.7-13.18-12.88-13.56C259.68,40.75,209.16,4.86,150.42,4.86,72.18,4.86,8.52,68.51,8.52,146.76c0,1.77.05,3.54.11,5.3h12.07c-.07-1.76-.13-3.53-.13-5.3,0-16.77,3.22-32.79,9.03-47.51h55.05v20.1h21.5v21.36h-34.05v41.3l-32.46,32.45c-4.83-7.88-8.82-16.32-11.91-25.19,3.92-2.38,6.55-6.68,6.55-11.61,0-7.15-5.52-13-12.54-13.54-.35-.03-.7-.06-1.06-.06-4.19,0-7.94,1.91-10.43,4.89-1.97,2.36-3.16,5.39-3.16,8.7,0,5.59,3.38,10.39,8.2,12.48,18.37,57.08,71.99,98.5,135.1,98.5,78.25,0,141.89-63.65,141.89-141.89,0-1.26-.02-2.52-.05-3.77-.1-4.07-.39-8.1-.84-12.09M233.69,151.37h-36.97v-37.03h36.97v37.03ZM198.84,26.33v35.86l-24.9,24.98h-34.18v-22.97h-21.5V20.95c10.29-2.63,21.06-4.04,32.16-4.04,17.12,0,33.45,3.37,48.42,9.42M35.11,87.17c14.93-28.77,40.29-51.3,71.05-62.49v39.51h-21.5v22.97h-49.55ZM93.72,73.25h36.97v37.03h-36.97v-37.03ZM106.17,152.8h12.09v-33.45h21.5v-20.1h34.18l13.72,13.72v47.47h21.5v33.47l-18.62,18.62h-26.7v-34.76h-55.1v35.59l-24.53-31.27v-29.29h21.96ZM117.8,186.83h36.97v37.03h-36.97v-37.03ZM150.42,276.6c-42.41,0-80.12-20.44-103.83-51.97l31.18-31.18,30.96,39.47h.02s0,0,0,0h55.1v-8.31h31.33s.38,0,.38,0l.76-.76,7.89-7.88,29.93,29.93c-22.62,19.13-51.82,30.69-83.7,30.69M242.99,237.69l-30.26-30.26,8.52-8.53v-38.47h21.51v-17.45h37.41c.03,1.26.09,2.51.09,3.77,0,35.38-14.24,67.48-37.27,90.93" fill="#fff"/></svg>